<?xml version="1.0" encoding="UTF-8"?>
<svg width="54px" height="54px" viewBox="0 0 54 54" version="1.1" xmlns="http://www.w3.org/2000/svg" xmlns:xlink="http://www.w3.org/1999/xlink">
    <title>Add</title>
    <g id="页面-1" stroke="none" stroke-width="1" fill="none" fill-rule="evenodd">
        <g id="Venture---Management" transform="translate(-640.000000, -515.000000)">
            <g id="编组-15备份-9" transform="translate(532.727689, 480.000000)">
                <g id="Add" transform="translate(107.272311, 35.000000)">
                    <rect id="矩形" x="0" y="0" width="54" height="54"></rect>
                    <path d="M27.0057282,46.1466002 L30.9238358,38.9462183 L28.5809908,33.4643047 C28.7900711,33.3411477 28.9361408,33.1521163 28.9361409,32.9287154 L28.9361409,31.7687493 C28.9361409,31.4021428 28.5638061,31.0985468 28.1141402,31.0985468 L25.8973162,31.0985468 C25.4476504,31.0985468 25.0753156,31.4021428 25.0753156,31.7687493 L25.0753156,32.9287154 C25.0753156,33.1521162 25.2185213,33.3411477 25.4333298,33.4643047 L23.0876207,38.9462183 L27.0028641,46.1466002 L27.0028641,46.1551925 L27.0057282,46.1494643 L27.0085924,46.1551925 L27.0085924,46.1466002 L27.0057282,46.1466002 Z M37.502705,31.104275 L26.9971359,53.7651427 L16.497295,31.0956826 C6.42134295,34.6013578 2.0249284,43.2681659 0,53.9026201 L54,53.9026201 C51.9722075,43.2767582 47.5729289,34.6099502 37.502705,31.104275 Z M12.5505463,14.4723666 C12.5505463,22.465234 19.0300455,28.9447332 27.0229129,28.9447332 C35.0157803,28.9447332 41.4952795,22.465234 41.4952795,14.4723666 C41.4952795,6.47949924 35.0157803,0 27.0229129,0 C19.0300455,0 12.5505463,6.47949924 12.5505463,14.4723666 Z" id="group" fill="#10164B" fill-rule="nonzero"></path>
                </g>
            </g>
        </g>
    </g>
</svg>