<?xml version="1.0" encoding="UTF-8"?>
<svg width="55px" height="54px" viewBox="0 0 55 54" version="1.1" xmlns="http://www.w3.org/2000/svg" xmlns:xlink="http://www.w3.org/1999/xlink">
    <title>Approve</title>
    <g id="页面-1" stroke="none" stroke-width="1" fill="none" fill-rule="evenodd">
        <g id="Venture---Management" transform="translate(-1225.000000, -517.000000)">
            <g id="编组-15备份-11" transform="translate(1120.183066, 480.000000)">
                <g id="Approve" transform="translate(105.000000, 37.000000)">
                    <rect id="矩形" x="0" y="0" width="54" height="54"></rect>
                    <path d="M43.1259592,9.39782356 L33.6367193,9.39782356 C32.6187514,6.74846011 30.0738543,5 27.2356533,5 C24.3974522,5 21.8525551,6.74846011 20.8345872,9.39782356 L11.3453473,9.39782356 C8.88318153,9.3731119 6.86168051,11.3383757 6.81693364,13.8002589 L6.81693364,44.6002818 C6.86353853,47.0648549 8.89073539,49.0296999 11.3555618,48.9996601 L43.1327688,48.9996601 C45.5975952,49.0296999 47.6247921,47.0648549 47.671397,44.6002818 L47.671397,13.8002589 C47.6266399,11.3316567 45.5947309,9.36367289 43.1259592,9.39782356 L43.1259592,9.39782356 Z M27.2356533,9.39782356 C28.440325,9.4370056 29.3890702,10.438431 29.3631586,11.6434613 C29.337247,12.8484915 28.3463316,13.8082087 27.141089,13.7955706 C25.9358465,13.7829326 24.9652738,12.8026474 24.9646368,11.5973388 C24.9888594,10.3607378 26.0092058,9.3769411 27.2458677,9.39782356 L27.2356533,9.39782356 Z M22.6970251,40.1978465 L13.6265783,31.3997856 L16.8271113,28.2979924 L22.7072395,33.9738313 L37.6646241,19.4760977 L40.8651571,22.6017246 L22.7072395,40.2012514 L22.6970251,40.1978465 Z" id="group" fill="#10164B" fill-rule="nonzero"></path>
                </g>
            </g>
        </g>
    </g>
</svg>