<?xml version="1.0" encoding="UTF-8"?>
<svg width="5px" height="19px" viewBox="0 0 5 19" version="1.1" xmlns="http://www.w3.org/2000/svg" xmlns:xlink="http://www.w3.org/1999/xlink">
    <title>:</title>
    <g id="页面-1" stroke="none" stroke-width="1" fill="none" fill-rule="evenodd">
        <g id="Venture-v4" transform="translate(-995.000000, -506.000000)" fill="#FF5B5B" fill-rule="nonzero">
            <g id="编组-25备份" transform="translate(679.000000, 493.000000)">
                <g id=":" transform="translate(316.408000, 13.624000)">
                    <path d="M2.25,0 C1.58606557,0 1.06967213,0.221311475 0.663934426,0.663934426 C0.221311475,1.10655738 0,1.62295082 0,2.25 C0,2.87704918 0.221311475,3.43032787 0.663934426,3.87295082 C1.06967213,4.27868852 1.58606557,4.5 2.25,4.5 C2.84016393,4.5 3.39344262,4.27868852 3.83606557,3.87295082 C4.27868852,3.43032787 4.5,2.87704918 4.5,2.25 C4.5,1.62295082 4.27868852,1.10655738 3.83606557,0.663934426 C3.39344262,0.221311475 2.84016393,0 2.25,0 Z M2.25,13.5 C1.58606557,13.5 1.06967213,13.7213115 0.663934426,14.1639344 C0.221311475,14.6065574 0,15.1229508 0,15.75 C0,16.3770492 0.221311475,16.9303279 0.663934426,17.3729508 C1.06967213,17.7786885 1.58606557,18 2.25,18 C2.84016393,18 3.39344262,17.7786885 3.83606557,17.3729508 C4.27868852,16.9303279 4.5,16.3770492 4.5,15.75 C4.5,15.1229508 4.27868852,14.6065574 3.83606557,14.1639344 C3.39344262,13.7213115 2.84016393,13.5 2.25,13.5 Z" id="形状"></path>
                </g>
            </g>
        </g>
    </g>
</svg>