<?xml version="1.0" encoding="UTF-8"?>
<svg width="60px" height="60px" viewBox="0 0 60 60" version="1.1" xmlns="http://www.w3.org/2000/svg" xmlns:xlink="http://www.w3.org/1999/xlink">
    <title>编组 17</title>
    <g id="页面-1" stroke="none" stroke-width="1" fill="none" fill-rule="evenodd">
        <g id="画板" transform="translate(-1039.000000, -247.000000)" fill-rule="nonzero">
            <g id="编组-17" transform="translate(1039.000000, 247.000000)">
                <g id="上升备份" fill="#FF8A00" opacity="0.16">
                    <path d="M0,30 C0,46.5685425 13.4314575,60 30,60 C46.5685425,60 60,46.5685425 60,30 C60,13.4314575 46.5685425,0 30,0 C13.4314575,0 0,13.4314575 0,30 Z" id="路径"></path>
                </g>
                <g id="冻结" transform="translate(17.000000, 15.000000)">
                    <path d="M24.5104114,15.4895886 C21.1908096,12.1702874 15.8091904,12.1699869 12.4895886,15.4895886 C9.16998688,18.8088899 9.17028737,24.1908096 12.4895886,27.5104114 C15.8088899,30.8300131 21.1908096,30.8297126 24.5104114,27.5104114 C27.8300131,24.1908096 27.8297126,18.8088899 24.5104114,15.4895886 Z M14.0251336,17.0251336 C16.1998378,14.8504293 19.5609083,14.593804 22.0210857,16.2459422 L13.2462427,25.0207852 C11.593804,22.5609083 11.8507298,19.1995373 14.0251336,17.0251336 L14.0251336,17.0251336 Z M23.0626119,26.0623114 C20.8879076,28.2370156 17.5268371,28.4936409 15.0666597,26.8415028 L23.8418033,18.0666597 C25.4939414,20.5265366 25.2373161,23.8879076 23.0626119,26.0623114 L23.0626119,26.0623114 Z" id="形状" fill="#FFAC52"></path>
                    <path d="M9.13391342,25.420291 C5.47625266,25.0260756 2.09933405,23.9910766 2.66453526e-15,22.3381897 L2.66453526e-15,24.9999511 L0.0112771691,24.9999511 C0.131764818,27.7691457 5.67182251,30 12.4995548,30 C12.5218124,30 12.5434765,29.9988259 12.565734,29.9985323 C12.2099097,29.7258398 11.8635819,29.4378834 11.5401052,29.117932 C10.4450327,28.0345 9.64880521,26.7684902 9.13391342,25.420291 L9.13391342,25.420291 Z M8.80272077,19.0171521 C5.71158937,18.6484741 2.84244014,17.8218839 0.809582033,16.5441328 C0.522014221,16.3633161 0.252549234,16.1734 0.000296767607,15.9746778 L0.000296767607,18.3335127 C0.000296767607,20.5831531 3.58703007,22.4881853 8.55491981,23.161551 C8.36024026,21.7801826 8.44155459,20.371222 8.80272077,19.0171521 Z M14.3546492,12.3034549 C13.7385596,12.339853 13.1197991,12.3636292 12.4998516,12.3636292 C10.3453188,12.3636292 8.18811505,12.1408374 6.20956541,11.711985 C4.2811695,11.2942869 2.53350506,10.6752248 1.13276196,9.86066945 C0.722925891,9.62261382 0.345140727,9.36723971 0,9.09572126 L0,11.9694138 C0,12.6002172 0.294690234,13.2013737 0.809285265,13.7585002 C1.27788132,14.2660196 1.93195712,14.7356731 2.75044218,15.151023 C4.46279128,16.0201755 6.85800264,16.655969 9.60607068,16.9219103 C10.0966275,15.9735037 10.7382391,15.0826297 11.5398084,14.2897958 C12.3740222,13.4655538 13.3272397,12.8051036 14.3546492,12.3034549 Z M24.9994065,11.9697073 L24.9994065,9.09601479 C24.6542657,9.36753324 24.2764806,9.62290735 23.8666445,9.86096299 C22.8585249,10.4471493 21.6658159,10.9282506 20.3600385,11.3098441 C21.9471516,11.5047503 23.4520602,12.0439713 24.7839532,12.8981537 C24.9240275,12.5972819 24.9994065,12.2873105 24.9994065,11.9697073 L24.9994065,11.9697073 Z M1.13276196,7.19978866 C1.25295284,7.30692837 1.37136311,7.41465515 1.50876652,7.51768539 C1.70107192,7.66181032 1.91029309,7.80211931 2.13494617,7.93743824 C2.48453841,8.14819526 2.882207,8.34368854 3.30332024,8.53037582 C3.42351112,8.58350538 3.53568927,8.63957027 3.66122197,8.69093862 C4.22656426,8.92136239 4.84621503,9.12947761 5.51127123,9.31264249 C6.01013758,9.45001614 6.53422918,9.57271313 7.08087511,9.68014638 C8.72021937,10.001859 10.5583979,10.1820886 12.5001484,10.1820886 C14.4418988,10.1820886 16.2800774,10.001859 17.9194217,9.68014638 C18.4657708,9.57300666 18.9901592,9.45001614 19.4890255,9.31264249 C20.1540817,9.12977114 20.7734357,8.92136239 21.338778,8.69093862 C21.4643107,8.6398638 21.5767857,8.58379891 21.6966798,8.53037582 C22.117793,8.34368854 22.5154616,8.14819526 22.8650538,7.93743824 C23.0897069,7.80211931 23.2986313,7.66210385 23.4912335,7.51768539 C23.6286369,7.41465515 23.7470472,7.30692837 23.867238,7.19978866 C24.0835816,7.00664364 24.2815256,6.80997622 24.4379222,6.60479634 C24.8032431,6.12663033 25,5.61823038 25,5.09104429 C25,4.5638582 24.8032431,4.05545825 24.4379222,3.57729225 C24.1942759,3.25851492 23.8761411,2.95324012 23.4912335,2.66469673 C23.2989281,2.5205718 23.0897069,2.38026281 22.8650538,2.24494389 C22.4157477,1.9740125 21.9041203,1.72186726 21.338778,1.4914435 C20.7734357,1.26101974 20.153785,1.05290451 19.4890255,0.869739636 C18.9901592,0.732365978 18.4657708,0.609668992 17.9194217,0.502235747 C16.2794839,0.180523077 14.4413053,0 12.4998516,0 C10.5583979,0 8.7199226,0.180229543 7.08057834,0.501942213 C6.53393241,0.609081925 6.00984081,0.732072444 5.51097447,0.869446102 C4.84591826,1.05231745 4.22656426,1.2607262 3.6609252,1.49114997 C3.09528614,1.72157373 2.58395556,1.97371897 2.1346494,2.24465035 C1.90999632,2.37996928 1.70107192,2.51998474 1.50846975,2.6644032 C1.12356216,2.95294659 0.805427286,3.25822138 0.56178108,3.57699872 C0.196756924,4.05545825 0,4.5638582 0,5.09104429 C0,5.61823038 0.196756924,6.12663033 0.562077848,6.60508987 C0.718474377,6.80997622 0.916418371,7.00693717 1.13276196,7.19978866 Z" id="形状" fill="#FF8A00"></path>
                </g>
            </g>
        </g>
    </g>
</svg>