<?xml version="1.0" encoding="UTF-8"?>
<svg width="58px" height="58px" viewBox="0 0 58 58" version="1.1" xmlns="http://www.w3.org/2000/svg" xmlns:xlink="http://www.w3.org/1999/xlink">
    <title>编组 18</title>
    <g id="页面-1" stroke="none" stroke-width="1" fill="none" fill-rule="evenodd">
        <g id="画板" transform="translate(-1011.000000, -400.000000)" fill-rule="nonzero">
            <g id="编组-18" transform="translate(1011.000000, 400.000000)">
                <g id="上升备份-2" fill="#FF8A00" opacity="0.16">
                    <path d="M0,29 C0,45.0162577 12.9837423,58 29,58 C45.0162577,58 58,45.0162577 58,29 C58,12.9837423 45.0162577,0 29,0 C12.9837423,0 0,12.9837423 0,29 Z" id="路径"></path>
                </g>
                <g id="编组" transform="translate(16.000000, 14.000000)">
                    <path d="M18.4257341,8.81114459 L8.62921308,8.81114459 C7.95690281,8.81114459 7.32153267,8.5156236 6.8856392,8.01323791 C5.79221152,6.74988565 4.78744013,5.22795252 4.78744013,4.10497273 C4.78744013,1.31968735 7.11466798,1.77035687 8.76958555,1.74819279 C10.1880863,1.73341674 11.3923344,-0.667691349 12.470986,0.181931514 C13.9707551,1.37140352 13.933815,2.60520368 14.8868702,2.47960726 C16.1649985,2.30229466 15.0494067,0.181931514 18.3444658,0.181931514 C21.6321369,0.181931514 22.7698927,1.50438797 22.3339993,4.10497273 C22.1197465,5.40526512 21.1593033,6.853318 20.1471439,8.03540198 M6.31676129,11.2196407 C6.84131105,10.6803149 7.56533749,10.3847939 8.32630406,10.3847939 L18.7803593,10.3847939 C19.570878,10.3847939 20.3318445,10.709867 20.8490063,11.293521 C23.8854845,14.6772364 26.3161447,19.3834082 26.3161447,22.9666003 C26.3161447,26.1065109 23.139294,30 19.2236408,30 L7.0925039,30 C3.17685071,30 0,26.0769588 0,22.9666003 C0,19.4425124 3.02909021,14.6033561 6.31676129,11.2196407 Z M13.8229946,25.6558414 C16.8520848,25.6558414 19.3049091,23.2251812 19.3049091,20.218255 C19.3049091,17.2187169 16.8520848,14.7806687 13.8229946,14.7806687 C10.7939044,14.7806687 8.34106351,17.2113289 8.34106351,20.218255 C8.33369208,23.2177931 10.7939044,25.6558414 13.8229946,25.6558414 Z" id="形状" fill="#FF8A00"></path>
                    <path d="M14.4509767,17.7728188 L16.6008919,19.90057 C16.8964129,20.196091 16.8964129,20.6689246 16.6008919,20.9644456 L14.4509767,23.0921967 C14.1554557,23.3877177 13.6752341,23.3877177 13.3797131,23.0921967 L11.2297978,20.9644456 C10.9342768,20.6689246 10.9342768,20.196091 11.2297978,19.90057 L13.3797131,17.7728188 C13.6678461,17.4772978 14.1554557,17.4772978 14.4509767,17.7728188 Z" id="路径" fill="#FFAC52"></path>
                </g>
            </g>
        </g>
    </g>
</svg>