<?xml version="1.0" encoding="UTF-8"?>
<svg width="55px" height="54px" viewBox="0 0 55 54" version="1.1" xmlns="http://www.w3.org/2000/svg" xmlns:xlink="http://www.w3.org/1999/xlink">
    <title>Invest</title>
    <g id="页面-1" stroke="none" stroke-width="1" fill="none" fill-rule="evenodd">
        <g id="Venture---Management" transform="translate(-933.000000, -705.000000)">
            <g id="编组-15备份-15" transform="translate(827.455378, 660.000000)">
                <g id="Invest" transform="translate(106.000000, 45.000000)">
                    <rect id="矩形" x="0" y="0" width="54" height="54"></rect>
                    <path d="M51.9049687,30.9122671 L48.840472,30.9122671 C48.0034729,22.6232759 40.9267804,16.1999827 32.4541895,16.1999827 L20.4446023,16.1999827 C19.1931832,13.6365598 16.5903848,12.0103347 13.7378094,12.0095872 L12.1610111,12.0095872 L12.1610111,18.8999799 C9.56484102,20.5890709 7.49910078,22.9777293 6.20211744,25.7903725 L2.67052121,25.7903725 C2.04975737,25.7903707 1.54611107,26.2928092 1.54462243,26.9135713 L1.54462243,37.9835595 C1.54462243,38.2821664 1.66324356,38.5685432 1.87439055,38.7796902 C2.08553753,38.9908371 2.37191429,39.1094583 2.67052121,39.1094583 L6.38571729,39.1094583 C7.33004277,41.2448302 8.72766615,43.1491727 10.4816129,44.6903523 C12.1983069,46.2305155 14.2326248,47.3744161 16.4405066,48.0410488 L16.4405066,52.8740436 C16.4405066,53.4958604 16.9445886,53.9999716 17.5664053,53.9999716 L24.440598,53.9999716 C24.7406059,54.0021008 25.0290679,53.8844332 25.24197,53.6730518 C25.4548722,53.4616704 25.5746045,53.1740593 25.5745968,52.8740436 L25.5745968,48.786248 L28.2745939,48.786248 L28.2745939,52.8740436 C28.2745939,53.1719345 28.3929306,53.4576245 28.6035712,53.6682651 C28.8142119,53.8789058 29.0999019,53.9972424 29.3977927,53.9972424 L36.2746854,53.9972424 C36.8965021,53.9972424 37.4005842,53.4931604 37.4005842,52.8713436 L37.4005842,48.0383488 C40.5048958,47.0909199 43.2587622,45.2446737 45.3142757,42.7328544 C47.3162129,40.255461 48.5461457,37.2444729 48.851272,34.0739637 L51.9157687,34.0739637 C52.5365326,34.0739655 53.0401789,33.5715269 53.0416675,32.9507648 L53.0416675,32.0354658 C53.0409618,31.7354465 52.9205423,31.448117 52.7071325,31.2372418 C52.4937228,31.0263666 52.2049751,30.9093883 51.9049687,30.9122671 Z M13.7999093,29.2031688 C12.8509367,29.1815049 12.088878,28.4134834 12.0746112,27.4643707 C12.0586411,26.9906204 12.2398311,26.5314573 12.5750135,26.1962749 C12.9101958,25.8610925 13.369359,25.6799025 13.8431093,25.6958726 C14.3168597,25.6799025 14.7760228,25.8610926 15.1112051,26.1962749 C15.4463875,26.5314573 15.6275775,26.9906204 15.6116074,27.4643707 C15.6038312,27.9358156 15.4081138,28.3846356 15.0679327,28.7111284 C14.7277515,29.0376212 14.2712761,29.2147507 13.7999093,29.2031688 L13.7999093,29.2031688 Z M31.7089902,21.599977 C32.5828142,21.599977 33.2911885,22.3083513 33.2911885,23.1821753 C33.2911885,24.0559993 32.5828142,24.7643736 31.7089902,24.7643736 L21.9350007,24.7643736 C21.0611767,24.7643736 20.3528023,24.0559993 20.3528023,23.1821753 C20.3528023,22.3083513 21.0611767,21.599977 21.9350007,21.599977 L31.7089902,21.599977 Z M26.7760955,7.81597009e-14 C30.7801912,7.81597009e-14 34.0390878,3.25889652 33.9445879,7.16849234 C33.994942,9.76319533 32.6394976,12.1826418 30.4004357,13.4947472 C28.1613737,14.8068526 25.3881174,14.8068526 23.1490554,13.4947472 C20.9099934,12.1826418 19.5545491,9.76319533 19.6049032,7.16849234 L19.6049032,7.16849234 C19.6090933,3.21006072 22.8176639,0.00149009382 26.7760955,7.81597009e-14 Z" id="group" fill="#10164B" fill-rule="nonzero"></path>
                </g>
            </g>
        </g>
    </g>
</svg>