<svg id="Layer_1" data-name="Layer 1" xmlns="http://www.w3.org/2000/svg" viewBox="0 0 200 200"><defs><style>.cls-1{fill:#d50073;}.cls-2{fill:#fdfbfc;}</style></defs><path class="cls-1" d="M37.18,100.07q0-17.92,0-35.86A26.7,26.7,0,0,1,58.36,37.76a24.13,24.13,0,0,1,5.22-.57h72.86A26.81,26.81,0,0,1,162.37,59a30.52,30.52,0,0,1,.45,5.23q0,36.06,0,72.11a26.81,26.81,0,0,1-21.75,26,27.16,27.16,0,0,1-4.93.46H63.51a26.79,26.79,0,0,1-25.8-21.34,30,30,0,0,1-.53-5.6Q37.19,118,37.18,100.07Z"/><path class="cls-2" d="M127.79,147.59c-.23-.68-.45-1.36-.7-2a59.7,59.7,0,0,0-8-14c-4.28-5.91-9.09-11.39-13.81-16.94a73.7,73.7,0,0,1-7.92-10.75l-.38-.68c2.41.67,4.73,1.34,7.06,2,4.13,1.11,8.29,2.11,12.48,3a2.08,2.08,0,0,1,1.5,1.06,68.11,68.11,0,0,1,9.46,27.06,59.78,59.78,0,0,1,.55,9.36c0,.64-.1,1.28-.15,1.91Z"/><path class="cls-2" d="M96.22,103.14c-.11,2.09-.22,4.19-.31,6.28q-.28,6.45-.52,12.9a1.21,1.21,0,0,1-.7,1.18,81.61,81.61,0,0,0-21.44,17.11c-1.58,1.71-3.21,3.37-4.83,5a2.16,2.16,0,0,1-.79.65c.62-2.08,1.33-4.07,2.08-6.05A93.58,93.58,0,0,1,79.89,120a64.19,64.19,0,0,1,12.46-13.45,30.78,30.78,0,0,0,3.15-3,6.15,6.15,0,0,1,.53-.49Z"/><path class="cls-2" d="M51.7,82.23a10.64,10.64,0,0,1,3.76-.92,108.51,108.51,0,0,1,20.31-.23q4.68.35,9.34.93a.89.89,0,0,1,.85.58c2.88,6.52,6,13,9.45,19.16a2.19,2.19,0,0,1,.08.28,21.63,21.63,0,0,1-4.11-1.69c-6.2-3.49-12.66-6.42-19.1-9.42-6.17-2.86-12.35-5.69-18.73-8.07C53,82.63,52.37,82.46,51.7,82.23Z"/><path class="cls-2" d="M127.43,149a2.35,2.35,0,0,1-1.15-.93,48.4,48.4,0,0,0-9.8-9.9c-6.42-5.17-13.13-9.94-20-14.57a1.22,1.22,0,0,1-.63-1.2c.29-6,.54-12,.81-18,.19-.11.24,0,.28.07,2.73,4.68,6.27,8.73,9.76,12.83a213.69,213.69,0,0,1,13.38,16.8,50.94,50.94,0,0,1,6.77,12.74c.19.59.35,1.2.52,1.8A.94.94,0,0,1,127.43,149Z"/><path class="cls-2" d="M96.13,101.83c-.62-1.13-1.27-2.24-1.87-3.38-2.78-5.24-5.34-10.58-7.73-16a1.21,1.21,0,0,1,0-1.18c2.59-5,5.15-10.07,8.12-14.89a77.73,77.73,0,0,1,11.2-14,7.75,7.75,0,0,1,1.52-1.22c.18-.11.38-.31.61-.12s.06.45-.06.66a97.09,97.09,0,0,0-4.66,9.5A72.94,72.94,0,0,0,98,78.78c-.43,2.8-.61,5.61-.81,8.44-.34,4.84-.65,9.69-1,14.53Z"/><path class="cls-2" d="M95.24,102.64a71.18,71.18,0,0,1-8.79,2.22c-3.47.61-7,1.19-10.43,1.78-.43.07-.82.18-1.19-.3A85.69,85.69,0,0,0,61.39,93.06a67.56,67.56,0,0,1-8.08-7.51A9.52,9.52,0,0,1,51.57,83a1.5,1.5,0,0,1,1,.17c3.69,1.27,7.26,2.84,10.83,4.42,8.69,3.85,17.32,7.82,25.75,12.21,1,.51,1.92,1.08,2.91,1.55S94.06,102.16,95.24,102.64Z"/><path class="cls-2" d="M148.23,93.84c-2.82-.19-5.53-.32-8.25-.44a76.81,76.81,0,0,0-29.38,4.17c-4.31,1.53-8.68,2.9-13,4.35-.14,0-.28.08-.58.16.26-.31.41-.52.58-.7,4.18-4.57,8-9.4,11.75-14.35a1.6,1.6,0,0,1,1.37-.69,116,116,0,0,1,14.56.22,60.14,60.14,0,0,1,21,5.9A5.2,5.2,0,0,1,148.23,93.84Z"/><path class="cls-2" d="M108.28,52.5a33.89,33.89,0,0,1-.17,6.13,78.17,78.17,0,0,0,.18,19.69c.38,2.4.65,4.81,1,7.21a1,1,0,0,1-.19.83c-3.77,5-7.67,9.9-11.89,14.53a3.42,3.42,0,0,1-.28.22c.07-1.36.12-2.61.2-3.86.22-3.32.55-6.64.67-10a73.43,73.43,0,0,1,7.68-29.48C106.34,56,107.23,54.22,108.28,52.5Z"/><path class="cls-2" d="M148.42,94.49a5.3,5.3,0,0,1-2.39,1.2c-2.72.75-5.51,1.21-8.19,2.15A81.08,81.08,0,0,0,118,107.52a1.16,1.16,0,0,1-1,.19c-6.56-1.46-13.11-3-19.54-5,0-.17.12-.2.23-.23,6.84-2.16,13.55-4.72,20.5-6.55a65.94,65.94,0,0,1,14.39-2,140,140,0,0,1,14.77.37C147.69,94.38,148,94.44,148.42,94.49Z"/><path class="cls-2" d="M94.71,103.73a73.39,73.39,0,0,0-17.21,18.8C73,129.83,69.87,137.7,67,145.76c0-.54,0-1.09,0-1.64s0-1.1.08-1.65a95.92,95.92,0,0,1,2-17.72,100.76,100.76,0,0,1,5.34-15.51c.79-1.92.8-1.9,2.81-2.24,5.74-1,11.53-1.74,17.11-3.48a.81.81,0,0,1,.15,0A1.12,1.12,0,0,0,94.71,103.73Z"/></svg>