<?xml version="1.0" encoding="UTF-8"?>
<svg width="58px" height="58px" viewBox="0 0 58 58" version="1.1" xmlns="http://www.w3.org/2000/svg" xmlns:xlink="http://www.w3.org/1999/xlink">
    <title>编组 18</title>
    <g id="页面-1" stroke="none" stroke-width="1" fill="none" fill-rule="evenodd">
        <g id="画板" transform="translate(-1011.000000, -536.000000)" fill-rule="nonzero">
            <g id="编组-18" transform="translate(1011.000000, 536.000000)">
                <g id="上升备份-2" fill="#FF8A00" opacity="0.16">
                    <path d="M0,29 C0,45.0162577 12.9837423,58 29,58 C45.0162577,58 58,45.0162577 58,29 C58,12.9837423 45.0162577,0 29,0 C12.9837423,0 0,12.9837423 0,29 Z" id="路径"></path>
                </g>
                <g id="编组" transform="translate(15.000000, 14.000000)" fill="#FF8A00">
                    <path d="M22.6270734,0 C24.1176268,0 25.3271044,1.17326363 25.3271044,2.62341748 L25.3271044,14.0679002 C25.3251346,14.2561596 25.221436,14.4288853 25.0554925,14.5203107 C24.8879827,14.6141718 24.6835639,14.6141718 24.5160541,14.5203107 L22.5778615,13.4352765 C21.4888695,12.825699 20.157665,12.825699 19.068673,13.4352765 L13.4755489,16.5739914 C12.395336,17.1731768 11.7244226,18.3031073 11.7200083,19.5306157 L11.7200083,27.3961751 C11.7158569,27.6882603 11.4750987,27.9224332 11.1805699,27.9208665 L2.70097736,27.9208665 C1.98673476,27.9223602 1.30037652,27.6460278 0.789283502,27.1511976 C0.286086444,26.6640944 0.00163572921,25.9966937 0,25.2993183 L0,2.62341748 C0,1.17514085 1.2094776,0 2.70003097,0 L22.6270734,0 Z M11.2742618,10.8991498 L5.22592746,10.8991498 C4.61858149,10.8991498 4.1262303,11.3874576 4.1262303,11.9898157 C4.1262303,12.5921738 4.61858149,13.0804816 5.22592746,13.0804816 L11.2761546,13.0804816 C11.8837619,13.0804816 12.3763249,12.5919637 12.3763249,11.9893464 C12.3763249,11.3867291 11.8837619,10.8982112 11.2761546,10.8982112 L11.2742618,10.8991498 Z M19.5248297,5.44394325 L5.22498107,5.44394325 C4.83209711,5.44394325 4.46905735,5.65182297 4.27261537,5.98927617 C4.07617339,6.32672937 4.07617339,6.74248886 4.27261537,7.07994206 C4.46905735,7.41739526 4.83209711,7.62527499 5.22498107,7.62527499 L19.5248297,7.62527499 C20.1321756,7.62527499 20.6245268,7.13696725 20.6245268,6.53460912 C20.6245268,5.93225099 20.1321756,5.44394325 19.5248297,5.44394325 L19.5248297,5.44394325 Z" id="形状"></path>
                </g>
                <path d="M36.3627056,29.4776938 L36.3627056,29.4805097 L36.3617592,29.4805097 L41.961508,32.622979 C42.2927421,32.8069467 42.4990536,33.1542327 42.5,33.5306157 L42.5,39.8127385 C42.4984428,40.1896446 42.2922979,40.5364954 41.9605616,40.7203752 L36.3617592,43.8600287 C36.0270862,44.0466571 35.618502,44.0466571 35.2838289,43.8600287 L29.6850265,40.7175594 C29.3532902,40.5336796 29.1471454,40.1868288 29.1455881,39.8099227 L29.1455881,33.5277999 C29.1455881,33.1523555 29.3490605,32.8050695 29.6850265,32.6201631 L35.2838289,29.4758166 C35.6190767,29.2894186 36.0281193,29.2901303 36.3627056,29.4776938 Z M35.8225881,35.016518 C35.4154795,35.0128705 35.0226048,35.1692894 34.7311479,35.4521912 C34.439691,35.7350931 34.2735499,36.1212811 34.2693062,36.5257231 C34.2693062,37.3610868 34.9648978,38.0368867 35.8232673,38.0368867 C36.2310531,38.0406373 36.6236244,37.8834996 36.9145472,37.6000712 C37.20547,37.3166428 37.3708911,36.9301625 37.3743892,36.5257231 C37.3660397,35.7309739 36.7458706,35.0845725 35.9622183,35.0222261 L35.8225881,35.016518 Z" id="形状结合" fill="#FFAC52"></path>
            </g>
        </g>
    </g>
</svg>