<?xml version="1.0" encoding="UTF-8"?>
<svg width="54px" height="54px" viewBox="0 0 54 54" version="1.1" xmlns="http://www.w3.org/2000/svg" xmlns:xlink="http://www.w3.org/1999/xlink">
    <title>ManageFeeTransfer</title>
    <g id="页面-1" stroke="none" stroke-width="1" fill="none" fill-rule="evenodd">
        <g id="Venture---Management" transform="translate(-345.000000, -700.000000)">
            <g id="编组-15备份-13" transform="translate(240.000000, 660.000000)">
                <g id="ManageFeeTransfer" transform="translate(105.000000, 40.000000)">
                    <rect id="矩形" opacity="0.309616815" x="0" y="0" width="54" height="54"></rect>
                    <path d="M37.02625,20.82162 C28.293565,20.82162 21.2153467,27.89986 21.2153467,36.6325233 C21.2153467,45.365555 28.2945834,52.4447916 37.02625,52.4447916 C45.758935,52.4447916 52.8381717,45.3655549 52.8381717,36.6325233 C52.8381717,27.8998383 45.758935,20.82162 37.02625,20.82162 Z M44.2497217,41.5765967 C44.013425,43.10817 43.162315,46.4549767 38.5510417,46.7884484 L38.5510417,49.7209017 L35.2929167,49.7209017 L35.2929167,46.811805 C33.3469684,46.5379167 31.5527084,46.03486 29.7076617,45.417685 L30.6860417,41.5897917 C32.14787,42.1605784 34.07382,42.7709717 35.7695834,42.967315 C38.0703234,43.23544 39.6215051,42.761135 39.7657401,41.0944917 C40.0937951,38.1732184 29.8461334,37.65896 29.9426151,32.3861817 C29.8028001,28.5139367 32.6123601,26.827165 35.4127767,26.59323 L35.4127767,23.5451633 L38.6685401,23.5451633 L38.6685401,26.4530683 C40.5173134,26.476945 41.9821967,26.874225 43.4084701,27.4986583 L42.5052301,31.1058116 C41.0725217,30.5661816 39.6073134,30.0597233 37.8529851,30.0597233 C36.7181934,30.0597233 34.3331701,30.0631033 34.2502301,31.6278483 C34.2502301,34.3253483 38.7596051,34.4628016 40.2579851,35.0989133 C41.3494434,35.5620383 42.1098134,36.0163666 42.8864334,36.7757183 C44.2429617,38.1011117 44.5246284,39.8087267 44.2497217,41.5765967 Z M20.4695367,1 C9.71509168,1 1,5.32436332 1,10.6587617 C1,15.9919684 9.71507,20.3168517 20.4695367,20.3168517 C31.2212734,20.3168517 39.936365,15.99316 39.936365,10.6587617 C39.936365,5.32436337 31.221295,1 20.4695367,1 Z M29.36405,13.6785533 C29.0725683,14.614445 28.0240967,16.6575466 22.3467583,16.8620366 L22.3467583,18.6529167 L18.335045,18.6529167 L18.335045,16.8759034 C15.9402067,16.7084851 13.7291883,16.3999084 11.4572217,16.0219334 L12.6631017,13.6846417 C14.4628,14.0331717 16.832245,14.4060767 18.9224067,14.525915 C21.752615,14.68926 23.6643517,14.3999667 23.84074,13.3821533 C24.2449533,11.5968633 11.6278467,11.283195 11.7453233,8.06333332 C11.5726616,5.69828663 15.0335866,4.666585 18.4789116,4.52523163 L18.4789117,2.66460668 L22.4875917,2.66460668 L22.4875917,4.44162 C24.7659717,4.454815 26.5680317,4.69806668 28.3233784,5.07944332 L27.2119434,7.28251 C25.4474534,6.95343668 23.6454151,6.64369 21.4844901,6.64369 C20.0859717,6.64369 17.1515034,6.6459 17.0492584,7.60109668 C17.0492584,9.24860837 22.6016884,9.33323837 24.4457167,9.72070337 C25.7900684,10.0037351 26.7254617,10.2808301 27.6818284,10.7458184 C29.3552534,11.5558917 29.6998834,12.5992933 29.36405,13.6785533 Z M26.6056017,22.7948033 C24.6752317,23.1135416 22.61588,23.292465 20.4695367,23.292465 C11.20331,23.292465 3.46696668,20.0785183 1.49868,15.7775117 C1.181805,16.467465 1,17.1845017 1,17.9214934 C1,23.2547001 9.71507,27.5795834 20.4695367,27.5795834 C20.9925917,27.5795834 21.5044667,27.5606251 22.0163417,27.5409951 C23.2212034,25.673415 24.7791667,24.05706 26.6056017,22.7948033 Z M39.4021517,20.1340283 C39.73935,19.4236 39.9353467,18.68507 39.9353467,17.9225116 C39.9353467,17.1844799 39.75456,16.4686349 39.437685,15.7787033 C38.7385883,17.309085 37.2967367,18.6972683 35.3274533,19.8559366 C35.604375,19.8425683 35.8759016,19.8131016 36.155185,19.8131016 C37.267985,19.8131017 38.3516434,19.92735 39.4021517,20.1340283 Z M20.4695367,29.6474067 C11.20331,29.6474067 3.46696668,26.4336334 1.49868,22.1326267 C1.181805,22.82258 1,23.5390967 1,24.2766084 C1,29.4578234 9.234005,33.6760417 19.5629167,33.9120134 C19.8100467,32.4105784 20.249815,30.9765267 20.8659717,29.6375917 C20.7353,29.6399533 20.602245,29.6474067 20.4695367,29.6474067 Z M19.3635184,35.9787967 C10.5949534,35.73301 3.38706005,32.6153934 1.49868005,28.4872 C1.18180505,29.1774783 1.00000005,29.894515 1.00000005,30.6318533 C1.00000005,35.84234 9.32710673,40.0791916 19.7403234,40.2697933 C19.4809951,39.0974316 19.3344201,37.8827333 19.3344201,36.6314833 C19.33442,36.4131483 19.354375,36.1971533 19.3635184,35.9787967 Z M1.49868,34.8426617 C1.181805,35.5332867 1,36.249305 1,36.9863184 C1,42.3200451 9.71507,46.6442351 20.4695367,46.6442351 C21.1940267,46.6442351 21.905625,46.6222217 22.6081017,46.5846517 C21.6662734,45.3022451 20.912685,43.8783551 20.3608567,42.3555784 C11.1423834,42.32882 3.45817,39.1262267 1.49868,34.8426617 Z M24.2994667,48.5173617 C23.0603934,48.6412734 21.7837717,48.7123617 20.4695367,48.7123617 C11.20331,48.7123617 3.46696668,45.4985884 1.49868,41.1974084 C1.181805,41.8876867 1,42.6037051 1,43.3417367 C1,48.674445 9.71509168,53 20.4695367,53 C23.6399767,53 26.62456,52.6154167 29.268565,51.9481483 C27.40456,51.10824 25.7267584,49.9446533 24.2994667,48.5173617 Z" id="group" fill="#10164B" fill-rule="nonzero"></path>
                </g>
            </g>
        </g>
    </g>
</svg>