<?xml version="1.0" encoding="UTF-8"?>
<svg width="55px" height="54px" viewBox="0 0 55 54" version="1.1" xmlns="http://www.w3.org/2000/svg" xmlns:xlink="http://www.w3.org/1999/xlink">
    <title>More</title>
    <g id="页面-1" stroke="none" stroke-width="1" fill="none" fill-rule="evenodd">
        <g id="Venture---Management" transform="translate(-1519.000000, -708.000000)">
            <g id="编组-15备份-17" transform="translate(1412.910755, 660.000000)">
                <g id="More" transform="translate(107.000000, 48.000000)">
                    <rect id="矩形" opacity="0.506487165" x="0" y="0" width="54" height="54"></rect>
                    <path d="M7,31 C9.209139,31 11,29.209139 11,27 C11,24.790861 9.209139,23 7,23 C4.790861,23 3,24.790861 3,27 C3,29.209139 4.790861,31 7,31 Z M27.0892449,32 C29.8506686,32 32.0892449,29.7614237 32.0892449,27 C32.0892449,24.2385763 29.8506686,22 27.0892449,22 C24.3278211,22 22.0892449,24.2385763 22.0892449,27 C22.0892449,29.7614237 24.3278211,32 27.0892449,32 Z M46.0892449,31 C48.2983839,31 50.0892449,29.209139 50.0892449,27 C50.0892449,24.790861 48.2983839,23 46.0892449,23 C43.8801059,23 42.0892449,24.790861 42.0892449,27 C42.0892449,29.209139 43.8801059,31 46.0892449,31 Z" id="group" fill="#10164B"></path>
                </g>
            </g>
        </g>
    </g>
</svg>