<?xml version="1.0" encoding="UTF-8"?>
<svg width="55px" height="54px" viewBox="0 0 55 54" version="1.1" xmlns="http://www.w3.org/2000/svg" xmlns:xlink="http://www.w3.org/1999/xlink">
    <title>NFTTrading</title>
    <g id="页面-1" stroke="none" stroke-width="1" fill="none" fill-rule="evenodd">
        <g id="Venture---Management" transform="translate(-1518.000000, -517.000000)">
            <g id="编组-15备份-12" transform="translate(1412.910755, 480.000000)">
                <g id="NFTTrading" transform="translate(106.000000, 37.000000)">
                    <rect id="矩形" opacity="0.308872768" x="0" y="0" width="54" height="54"></rect>
                    <path d="M27.0892449,2 C13.2853583,2 2.08924485,13.1905294 2.08924485,27 C2.08924485,40.8094706 13.2853583,52 27.0892449,52 C40.8931314,52 52.0892449,40.8038865 52.0892449,27 C52.0892449,13.1961135 40.9042996,2 27.0892449,2 Z M41.853596,34.9908421 C41.7921709,35.0746035 41.7251618,35.1471968 41.6414003,35.2086218 L31.2884854,42.8700022 C30.85851,43.1882957 30.2554276,43.0989502 29.9371341,42.6689748 C29.8142839,42.507036 29.7472748,42.3004244 29.7472748,42.0938128 L29.7472748,37.1630556 L21.2929527,37.1630556 C15.2621285,37.1965602 11.995432,34.2146527 11.470527,28.2229171 C11.995432,28.7701586 14.2849116,32.0033505 21.2929527,32.0033505 C25.9612574,32.0033505 28.7868102,31.9530936 29.7528589,31.8469958 L29.7528589,27.117266 C29.7528589,26.5811928 30.1884184,26.1512173 30.7189076,26.1512173 C30.919935,26.1512173 31.1153784,26.2182265 31.2773172,26.3299084 L41.624648,33.6394907 C42.0602075,33.9522001 42.1607213,34.5552826 41.853596,34.9908421 L41.853596,34.9908421 Z M32.8967052,21.9798973 C28.2284005,21.9798973 25.4028477,22.0301541 24.436799,22.136252 L24.436799,26.8659817 C24.436799,27.4020549 24.0012395,27.8320304 23.4707503,27.8320304 C23.2697228,27.8320304 23.0742795,27.7650212 22.9123407,27.6533393 L12.5594258,20.3493411 C12.1238662,20.0422158 12.0177684,19.4391333 12.3304778,19.0035738 C12.3919029,18.9198124 12.458912,18.8472191 12.5426735,18.7857941 L22.8900043,11.1299978 C23.3199797,10.8117043 23.9230621,10.9010498 24.2413556,11.3310252 C24.3642058,11.492964 24.4312149,11.6995756 24.4312149,11.9061872 L24.4312149,16.8369444 L32.8911211,16.8369444 C38.9219453,16.8034398 42.1886418,19.7853473 42.7135468,25.7770829 C42.1886418,25.2186732 39.9047463,21.9798973 32.8967052,21.9798973 L32.8967052,21.9798973 Z" id="group" fill="#10164B" fill-rule="nonzero"></path>
                </g>
            </g>
        </g>
    </g>
</svg>