<?xml version="1.0" encoding="UTF-8"?>
<svg width="58px" height="58px" viewBox="0 0 58 58" version="1.1" xmlns="http://www.w3.org/2000/svg" xmlns:xlink="http://www.w3.org/1999/xlink">
    <title>编组 18</title>
    <g id="页面-1" stroke="none" stroke-width="1" fill="none" fill-rule="evenodd">
        <g id="画板" transform="translate(-1011.000000, -670.000000)" fill-rule="nonzero">
            <g id="编组-18" transform="translate(1011.000000, 670.000000)">
                <g id="上升备份-2" fill="#FF8A00" opacity="0.16">
                    <path d="M0,29 C0,45.0162577 12.9837423,58 29,58 C45.0162577,58 58,45.0162577 58,29 C58,12.9837423 45.0162577,0 29,0 C12.9837423,0 0,12.9837423 0,29 Z" id="路径"></path>
                </g>
                <g id="编组" transform="translate(14.000000, 11.000000)">
                    <path d="M17.0447806,0.67051611 L28.6274821,11.7036982 C29.112992,12.1661843 29.1255622,12.9283886 28.6555586,13.4061327 L21.5455895,20.6331717 C21.3199074,20.862712 21.0107854,20.9946102 20.6862544,21 C20.3617233,21.0050667 20.0483791,20.8831965 19.8151816,20.6610488 L7.37251794,8.80857793 C6.88700803,8.34609182 6.87443776,7.58388757 7.3444414,7.10614339 L13.6219807,0.725199639 C14.5518151,-0.219956837 16.0842544,-0.24443948 17.0447806,0.67051611 Z" id="路径" fill="#FFCB93"></path>
                    <path d="M8.67549537,4.1822487 L27.2694646,11.946852 C27.560636,12.0681326 27.7914825,12.2997482 27.9111653,12.5906905 C28.0308481,12.8816329 28.0295516,13.2080408 27.9075612,13.4980303 L22.9540797,25.272836 C22.7001954,25.8763466 22.0033331,26.1605376 21.3975865,25.9075973 L1.72955726,17.6944809 C1.43866016,17.5730108 1.20811092,17.3413816 1.08862928,17.0505506 C0.969147637,16.7597196 0.97052123,16.4335109 1.09244787,16.1436889 L5.59610972,5.43800127 C5.83730946,4.8646281 6.29724644,4.41020328 6.87473796,4.17469687 C7.45222949,3.93919045 8.09996951,3.94189429 8.67546009,4.18221356 L8.67549537,4.1822487 Z" id="路径" fill="#FFBC73"></path>
                    <path d="M27.4337349,11 C28.1143507,11 28.7670903,11.2671548 29.2483584,11.7426935 C29.7296264,12.2182322 30,12.8632011 30,13.5357143 L30,27.4642857 C30,28.136799 29.7296264,28.7817678 29.2483584,29.2573065 C28.7670903,29.7328452 28.1143507,30 27.4337349,30 L2.56626508,30 C1.88564927,30 1.2329097,29.7328452 0.751641643,29.2573065 C0.270373582,28.7817678 0,28.136799 0,27.4642857 L0,14.7142857 C0,12.6629424 1.68297781,11 3.75903615,11 L27.4337349,11 Z M19.8592771,25.5357143 C19.240452,25.5357143 18.7387952,26.031399 18.7387952,26.6428571 C18.7387952,27.2543153 19.240452,27.75 19.8592771,27.75 C20.4781022,27.75 20.979759,27.2543153 20.979759,26.6428571 C20.979759,26.031399 20.4781022,25.5357143 19.8592771,25.5357143 Z M23.1726506,25.5357143 C22.5538255,25.5357143 22.0521687,26.031399 22.0521687,26.6428571 C22.0521687,27.2543153 22.5538255,27.75 23.1726506,27.75 C23.7914757,27.75 24.2931325,27.2543153 24.2931325,26.6428571 C24.2931325,26.031399 23.7914757,25.5357143 23.1726506,25.5357143 Z M25.9253664,25.6838855 C25.5786599,25.8816996 25.3651123,26.247268 25.3651807,26.6428571 C25.3651123,27.0384463 25.5786599,27.4040146 25.9253664,27.6018287 C26.2720728,27.7996428 26.6992525,27.7996428 27.0459589,27.6018287 C27.3926653,27.4040146 27.606213,27.0384463 27.6061446,26.6428571 C27.606213,26.247268 27.3926653,25.8816996 27.0459589,25.6838855 C26.6992525,25.4860715 26.2720728,25.4860715 25.9253664,25.6838855 Z M25.1573494,14.2142857 L4.8440964,14.2142857 C3.84275771,14.2142857 3.31427341,14.6815109 3.25864348,15.6159612 L3.25373496,15.7857143 L3.25864348,15.9554674 C3.31100106,16.83495 3.78221926,17.3005585 4.6722981,17.3522928 L4.8440964,17.3571429 L25.1573494,17.3571429 C26.1586881,17.3571429 26.6871724,16.8899177 26.7428023,15.9554674 L26.7477108,15.7857143 L26.7428023,15.6159612 C26.6871724,14.6815109 26.1586881,14.2142857 25.1573494,14.2142857 Z" id="形状结合" fill="#FF8A00"></path>
                </g>
            </g>
        </g>
    </g>
</svg>