<?xml version="1.0" encoding="UTF-8"?>
<svg width="55px" height="54px" viewBox="0 0 55 54" version="1.1" xmlns="http://www.w3.org/2000/svg" xmlns:xlink="http://www.w3.org/1999/xlink">
    <title>Remove</title>
    <g id="页面-1" stroke="none" stroke-width="1" fill="none" fill-rule="evenodd">
        <g id="Venture---Management" transform="translate(-933.000000, -515.000000)">
            <g id="编组-15备份-10" transform="translate(827.455378, 480.000000)">
                <g id="Remove" transform="translate(106.000000, 35.000000)">
                    <rect id="矩形" x="0" y="0" width="54" height="54"></rect>
                    <g transform="translate(0.000000, 3.000000)">
                        <g id="hh" fill="#10164B" fill-rule="nonzero">
                            <path d="M20.8680627,35.6587365 L23.8956913,30.0948051 L22.085311,25.8587809 C22.2468731,25.7636142 22.3597452,25.6175444 22.3597452,25.4449164 L22.3597452,24.548579 C22.3597452,24.2652922 22.072032,24.0306952 21.7245629,24.0306952 L20.0115625,24.0306952 C19.6640935,24.0306952 19.3763803,24.2652922 19.3763802,24.548579 L19.3763802,25.4449164 C19.3763802,25.6175444 19.4870392,25.7636142 19.6530276,25.8587809 L17.8404342,30.0948051 L20.8658495,35.6587365 L20.8658495,35.665376 L20.8680627,35.6609497 L20.8702759,35.665376 L20.8702759,35.6587365 L20.8680627,35.6587365 Z" id="路径"></path>
                            <path d="M28.9793629,24.0351216 L20.8614232,41.5457921 L12.7479098,24.028482 C4.96194682,26.7374129 1.5647174,33.4344918 0,41.6520246 L41.7272727,41.6520246 C40.1603421,33.4411313 36.7608996,26.7440524 28.9793629,24.0351216 Z M9.69814942,11.1831924 C9.69814942,17.359499 14.7050352,22.3663848 20.8813418,22.3663848 C27.0576484,22.3663848 32.0645342,17.359499 32.0645342,11.1831924 C32.0645342,5.00688577 27.0576484,0 20.8813418,0 C14.7050352,0 9.69814942,5.00688577 9.69814942,11.1831924 Z" id="ddd"></path>
                        </g>
                        <circle id="dd" stroke="#FFFFFF" fill="#10164B" cx="41.7272727" cy="35.5909091" r="11.7727273"></circle>
                        <rect id="矩形" fill="#FFFFFF" x="36.8181818" y="34.3636364" width="9.81818182" height="2.45454545"></rect>
                    </g>
                </g>
            </g>
        </g>
    </g>
</svg>