<?xml version="1.0" encoding="UTF-8"?>
<svg width="54px" height="54px" viewBox="0 0 54 54" version="1.1" xmlns="http://www.w3.org/2000/svg" xmlns:xlink="http://www.w3.org/1999/xlink">
    <title>Settlement</title>
    <g id="页面-1" stroke="none" stroke-width="1" fill="none" fill-rule="evenodd">
        <g id="Venture---Management" transform="translate(-1301.000000, -710.000000)">
            <g id="Settlement" transform="translate(1301.000000, 710.000000)">
                <rect id="矩形" x="0" y="0" width="54" height="54"></rect>
                <path d="M38.570002,17.0311292 L15.3057148,17.0311292 C14.1658401,17.0311292 13.2171992,16.1999392 13.2171992,14.9998332 C13.2171992,13.8930855 14.0709759,12.970043 15.3057148,12.970043 L38.4766437,12.970043 C39.6150127,12.970043 40.5651593,13.7997273 40.5651593,14.9998332 C40.5651593,16.1999391 39.7098768,17.0311292 38.5715078,17.0311292 M38.5715078,25.5237234 L15.3057148,25.5237234 C14.1643343,25.5237234 13.2156935,24.6925333 13.2156935,23.4924273 C13.2156935,22.3841739 14.0694702,21.4611313 15.3042091,21.4611313 L38.4751379,21.4611313 C39.6135069,21.4611313 40.5636535,22.2923214 40.5636535,23.4939331 C40.5636535,24.6925333 39.708371,25.5237234 38.570002,25.5237234 M27.458858,34.2000226 L14.643172,34.2000226 C13.9776177,34.2000226 13.4084332,33.3703383 13.4084332,32.1702323 C13.4084332,31.0619789 13.9776177,30.1374305 14.643172,30.1374305 L27.4618695,30.1374305 C28.1274239,30.1374305 28.6966084,30.9701263 28.6966084,32.1702323 C28.7914725,33.1851274 28.222288,34.2000226 27.4618695,34.2000226 M47.9735925,47.3078296 L47.9735925,15.7391708 C47.8787284,14.9079807 47.3080381,13.3389589 46.5491254,12.5996213 L38.0956816,4.29223801 C37.2306625,3.45481183 36.0712227,2.99081961 34.8672912,3.00013768 L9.79908066,3.00013768 C7.61570098,3.00013768 6,4.75451217 6,6.69244988 L6,47.3078296 C6,49.4309781 7.80392336,51 9.79908066,51 L44.1715003,51 C46.2615217,51 47.9705809,49.3391256 47.9705809,47.3078296" id="group" fill="#10164B" fill-rule="nonzero"></path>
            </g>
        </g>
    </g>
</svg>