<?xml version="1.0" encoding="UTF-8"?>
<svg width="54px" height="54px" viewBox="0 0 54 54" version="1.1" xmlns="http://www.w3.org/2000/svg" xmlns:xlink="http://www.w3.org/1999/xlink">
    <title>Swap Token </title>
    <g id="页面-1" stroke="none" stroke-width="1" fill="none" fill-rule="evenodd">
        <g id="Venture---Management" transform="translate(-347.000000, -517.000000)">
            <g id="编组-15备份-8" transform="translate(240.000000, 480.000000)">
                <g id="Swap-Token-" transform="translate(107.000000, 37.000000)">
                    <rect id="矩形" x="0" y="0" width="54" height="54"></rect>
                    <path d="M25.3139803,21.125 L47.8110197,21.125 C49.9870066,21.125 51.75,19.4029258 51.75,17.2774439 L51.75,5.84755614 C51.75,3.72207417 49.9870066,2 47.8110197,2 L25.3139803,2 C23.1379934,2 21.375,3.72207417 21.375,5.84755614 L21.375,17.2774439 C21.375,19.4029258 23.1379934,21.125 25.3139803,21.125 Z M28.6860125,32.375 L6.18897918,32.375 C4.01299294,32.375 2.25,34.0970742 2.25,36.2225561 L2.25,47.6524439 C2.25,49.7779258 4.01299294,51.5 6.18897918,51.5 L28.6860125,51.5 C30.8619987,51.5 32.625,49.7779258 32.625,47.6524439 L32.625,36.2225561 C32.6294324,34.0970742 30.8619987,32.375 28.6860125,32.375 Z M53.2619615,28.7572205 L48.6386069,24.1457775 C47.7050458,23.2166912 46.1962483,23.1148207 45.1376853,23.9094034 L40.0199257,27.7515563 C38.8752224,28.6110983 38.6703338,30.2055488 39.5611536,31.3100603 C40.4519733,32.4145718 42.104444,32.6122665 43.2491474,31.7527244 L43.8148179,31.3272511 C43.7524605,31.8085947 43.6678327,32.3114268 43.5386638,32.8228543 C42.5721244,36.6564117 39.8551241,39.3940531 35.4678368,40.9584196 C34.8137096,41.1911624 34.2823184,41.6652883 33.9907406,42.2763364 C33.6991629,42.8873845 33.6713235,43.5852165 33.9133563,44.2160839 C34.2937819,45.2118643 35.2765736,45.8737773 36.3764729,45.875 C36.6793516,45.875 36.9866845,45.8234275 37.2851091,45.7159847 C45.485105,42.7935418 48.4337184,36.8884881 49.0751086,31.8730603 L49.4893398,32.2856405 C50.0060153,32.8013657 50.6919465,33.0592283 51.3778777,33.0592283 C52.0370843,33.0592283 52.6918368,32.8228543 53.2040582,32.3458084 C54.2418632,31.3702282 54.2685878,29.7671823 53.2619615,28.7572205 L53.2619615,28.7572205 Z M7.78311248,30.125 C8.44127552,30.125 9.09943855,29.8906149 9.61334668,29.4218447 L14.3782667,25.0770396 C15.4437471,24.1044065 15.4901365,22.4847877 14.4819499,21.4570921 C13.9973563,20.9634505 13.3288186,20.6755544 12.6236197,20.6568291 C11.9184209,20.6381038 11.2344199,20.8900856 10.7223063,21.3572614 L10.1948743,21.839053 C10.2083982,21.3485805 10.2444619,20.8364056 10.3210973,20.3068689 C10.9071329,16.3613866 13.3639744,13.3534445 17.6240022,11.3655117 C18.9454671,10.7489623 19.4982903,9.21816561 18.8591849,7.94522557 C18.2188424,6.67286205 16.6289713,6.14057997 15.3069077,6.75593825 C7.34133182,10.4670355 4.97464967,16.6782405 4.83941069,21.7869674 L4.37959816,21.409347 C3.26173145,20.4936271 1.58453651,20.6238277 0.63347842,21.7001581 C-0.317579672,22.7764885 -0.182354569,24.3913644 0.935512141,25.3070842 L6.06106947,29.508654 C6.55694573,29.9209982 7.17002911,30.125 7.78311248,30.125 L7.78311248,30.125 Z" id="group" fill="#10164B" fill-rule="nonzero"></path>
                </g>
            </g>
        </g>
    </g>
</svg>