<?xml version="1.0" encoding="UTF-8"?>
<svg width="55px" height="54px" viewBox="0 0 55 54" version="1.1" xmlns="http://www.w3.org/2000/svg" xmlns:xlink="http://www.w3.org/1999/xlink">
    <title>withdraw</title>
    <g id="页面-1" stroke="none" stroke-width="1" fill="none" fill-rule="evenodd">
        <g id="Venture---Management" transform="translate(-638.000000, -701.000000)">
            <g id="编组-15备份-14" transform="translate(532.727689, 660.000000)">
                <g id="withdraw" transform="translate(106.000000, 41.000000)">
                    <rect id="矩形" x="0" y="0" width="54" height="54"></rect>
                    <path d="M46.793834,6 C48.2471212,5.99900553 49.6411716,6.57588067 50.668801,7.60351014 C51.6964305,8.63113961 52.2733057,10.02519 52.2723112,11.4784772 L52.2723112,11.4784772 L52.2723112,41.7694619 C52.2733057,43.2227491 51.6964305,44.6167995 50.668801,45.644429 C49.6411716,46.6720584 48.2471212,47.2489336 46.793834,47.2479391 L46.793834,47.2479391 L7.12831828,47.2479391 C4.44727665,47.2458699 2.27437912,45.0729724 2.27231121,42.3919308 L2.27231121,42.3919308 L2.27231121,10.8560083 C2.27437912,8.17496673 4.44727665,6.0020692 7.12831828,6 L7.12831828,6 Z M35.158166,38.0833963 L10.473151,38.0833963 C9.97723355,38.0833963 9.50168222,38.280654 9.15136756,38.6316721 C8.8010529,38.9826902 8.60474854,39.4586363 8.60574059,39.9545527 L8.60574059,39.9658021 C8.60574059,40.9970005 9.44195254,41.8332087 10.473151,41.8332087 L35.158166,41.8332087 C36.1895062,41.8332087 37.0255764,40.9971423 37.0255764,39.9658021 L37.0255764,39.9545527 C37.0265685,39.4586363 36.8302641,38.9826902 36.4799494,38.6316721 C36.1296348,38.280654 35.6540834,38.0833963 35.158166,38.0833963 Z M23.9087288,28.7088652 L10.473151,28.7088652 C9.97723355,28.7088652 9.50168222,28.906123 9.15136756,29.2571411 C8.8010529,29.6081592 8.60474854,30.0841052 8.60574059,30.5800216 L8.60574059,30.5912711 C8.60574059,31.6224695 9.44195254,32.4586777 10.473151,32.4586777 L23.9087288,32.4586777 C24.940069,32.4586777 25.7761392,31.6226113 25.7761392,30.5912711 L25.7761392,30.5800216 C25.7771312,30.0841052 25.5808269,29.6081592 25.2305122,29.2571411 C24.8801975,28.906123 24.4046462,28.7088652 23.9087288,28.7088652 Z M28.7609861,11.6284697 L20.1589164,19.0718474 C19.9679537,19.2393025 19.8581446,19.4807346 19.8574236,19.7347178 C19.8567097,19.988701 19.965153,20.2307496 20.1551666,20.399281 L28.6897396,27.9251544 C28.6924769,28.3276043 28.9686481,28.6765949 29.3596942,28.7717595 C29.7507403,28.8669241 30.1563915,28.683861 30.3437501,28.3276727 C30.5311088,27.9714845 30.4521335,27.5335028 30.1521665,27.2651875 L30.1709155,23.3578829 C34.3482066,23.376632 37.6517913,23.9128552 40.1416668,24.7715622 C42.1815647,25.5477734 43.9777249,27.0102002 45.4926491,29.2375888 C45.5571846,29.3416264 45.6896876,29.3804078 45.8001337,29.3275843 C45.9094057,29.275314 45.9637117,29.1507297 45.9276273,29.035099 L45.9238775,29.0238495 C45.7251374,28.3713822 45.2564109,27.2651875 44.453951,25.5740221 C43.692824,23.9949457 42.7243193,22.5245336 41.5740951,21.2017408 C40.5016487,19.9643027 38.956726,18.8506084 36.9355771,17.800661 C35.2631608,16.9307045 32.5707955,15.9670027 31.0071237,15.6595181 C30.5564294,15.6169566 30.2120929,15.2385112 30.2121635,14.7858118 L30.2196631,12.2996861 C30.2186628,11.9550736 30.0177016,11.642384 29.7046414,11.498328 C29.3915812,11.3542721 29.0233673,11.4050533 28.7609861,11.6284697 Z M12.6592916,19.3230848 L10.473151,19.3230848 C9.44181077,19.3230848 8.60574436,20.1591512 8.60574436,21.1904914 L8.60574436,21.2054906 C8.60574436,22.236689 9.44195254,23.0728972 10.473151,23.0728972 L12.6592916,23.0728972 C13.1545586,23.0728972 13.6295408,22.8761531 13.9797475,22.5259465 C14.3299541,22.1757398 14.5266982,21.7007576 14.5266982,21.2054906 L14.5266982,21.1904914 C14.5266982,20.6952244 14.3299541,20.2202422 13.9797475,19.8700355 C13.6295408,19.5198288 13.1545586,19.3230848 12.6592916,19.3230848 Z" id="group" fill="#10164B" fill-rule="nonzero"></path>
                </g>
            </g>
        </g>
    </g>
</svg>